<svg id="Calque_1" data-name="Calque 1" xmlns="http://www.w3.org/2000/svg" viewBox="0 0 590.27 664.36"><defs><style>.cls-1{fill:#fff;stroke:#fff;stroke-miterlimit:10;}</style></defs><title>demute</title><path class="cls-1" d="M795.27,685.36v71.9H206v-71.9h36.49V389.24c0-97.27,86-183.3,185.76-183.3,0-26.53,12.4-37.94,72.42-37.94s72.7,11.41,72.7,37.94c99.76,0,184.61,86,184.61,183.3V685.36ZM684.74,684V400.29c0-68.9-53.22-121.58-122.82-121.58H439.11c-69.62,0-122.81,52.65-122.81,121.58V684Z" transform="translate(-205.5 -167.5)"/><path class="cls-1" d="M684.74,400.29V684H316.3V400.29c0-68.9,53.22-121.58,122.81-121.58H561.92C631.49,278.71,684.74,331.36,684.74,400.29Z" transform="translate(-205.5 -167.5)"/><path class="cls-1" d="M427.06,794.36H574.49c-10.53,22.21-36.85,37-73.69,37S437.59,816.55,427.06,794.36Z" transform="translate(-205.5 -167.5)"/><rect class="cls-1" x="97" y="102" width="391" height="434"/></svg>