<svg id="Calque_1" data-name="Calque 1" xmlns="http://www.w3.org/2000/svg" viewBox="0 0 896.41 1000"><defs><style>.cls-1{fill:#fff;}</style></defs><title>discord-icon_muteServ(mute)</title><path class="cls-1" d="M528.49,974c51,0,87.41-20.5,102-51.24h-204C441.08,953.5,477.5,974,528.49,974Z" transform="translate(-74.32 26)"/><path class="cls-1" d="M884.81,771.31V361.84s-.44-6-.55-9.05a7.62,7.62,0,0,1-1.58,3.54c-1.24,1.55-2.46,3.09-3.59,4.72-.14.21-.3.4-.46.59a15.39,15.39,0,0,1-1.78,2.67L782.88,512V769.85H532.45c0-.09-103.84,100.48-103.84,100.48H935.78v-99Z" transform="translate(-74.32 26)"/><polygon class="cls-1" points="354.68 897.79 808.36 382.32 708.55 795.85 354.68 897.79"/><rect class="cls-1" x="-61.35" y="444.98" width="1167.75" height="99.96" transform="translate(-271.27 540.45) rotate(-45)"/><line class="cls-1" x1="536.71" y1="235.19" x2="538.17" y2="235.19"/><line class="cls-1" x1="513.41" y1="235.19" x2="536.71" y2="235.19"/><line class="cls-1" x1="507.59" y1="235.19" x2="513.41" y2="235.19"/><path class="cls-1" d="M581.91,209.19H445.51c-49.63,0-172.33,121.38-172.33,168.27V510.9L169.79,617.12V617l1.46-.12v-255c0-134.62,119-253.68,257.09-253.68,0-36.71,17.17-52.51,100.24-52.51s100.61,15.8,100.61,52.51a241.11,241.11,0,0,1,47.74,4.8L170,619.85l115-400.47" transform="translate(-74.32 26)"/><line class="cls-1" x1="601.15" y1="138.71" x2="739.86"/><polyline class="cls-1" points="505 234.86 96.92 642.94 601.15 138.71 505 234.86"/><line class="cls-1" x1="505" y1="234.86" x2="505.69" y2="234.18"/><polyline class="cls-1" points="505.28 234.58 600.79 139.07 210.51 245.38 96.92 642.94 505.28 234.58"/><polygon class="cls-1" points="464.99 897.79 292.72 897.79 808.36 382.98 709.63 792.05 464.99 897.79"/></svg>