<svg id="Calque_1" data-name="Calque 1" xmlns="http://www.w3.org/2000/svg" viewBox="0 0 820.58 856.78"><defs><style>.cls-1{fill:#fff;}</style></defs><title>discord-icon_muteServ(mute)v3</title><path class="cls-1" d="M476.51,906.27c44.78,0,76.77-18,89.57-45H386.94C399.73,888.27,431.72,906.27,476.51,906.27Z" transform="translate(-101.42 -99.7)"/><path class="cls-1" d="M789.45,728.25V368.63s-.38-5.31-.49-8a6.69,6.69,0,0,1-1.39,3.11c-1.09,1.36-2.16,2.71-3.16,4.14-.13.18-.26.35-.4.52a13.51,13.51,0,0,1-1.56,2.34L699.92,500.54V727H480c0-.08-91.2,88.25-91.2,88.25H834.22v-87Z" transform="translate(-101.42 -99.7)"/><polygon class="cls-1" points="287.71 716.8 686.16 264.08 598.5 627.27 287.71 716.8"/><rect class="cls-1" x="-1.09" y="478.75" width="1025.6" height="134.87" transform="translate(-337.76 422.11) rotate(-45)"/><line class="cls-1" x1="447.58" y1="134.85" x2="448.86" y2="134.85"/><line class="cls-1" x1="427.12" y1="134.85" x2="447.58" y2="134.85"/><line class="cls-1" x1="422" y1="134.85" x2="427.12" y2="134.85"/><path class="cls-1" d="M523.42,234.56H403.62c-43.59,0-151.35,106.61-151.35,147.79v117.2l-90.81,93.28v-.13l1.28-.11v-224c0-118.23,104.53-222.8,225.79-222.8,0-32.24,15.08-46.12,88-46.12s88.36,13.88,88.36,46.12A211.76,211.76,0,0,1,606.87,150l-445.2,445.2,101-351.72" transform="translate(-101.42 -99.7)"/><path class="cls-1" d="M605.59,149.83" transform="translate(-101.42 -99.7)"/><polyline class="cls-1" points="419.73 134.57 61.32 492.97 504.17 50.12 419.73 134.57"/><line class="cls-1" x1="419.73" y1="134.57" x2="420.33" y2="133.97"/><polyline class="cls-1" points="419.98 134.32 503.86 50.44 161.09 143.81 61.32 492.97 419.98 134.32"/><polygon class="cls-1" points="384.59 716.8 233.28 716.8 686.16 264.65 599.45 623.93 384.59 716.8"/><polygon class="cls-1" points="216.58 717.94 732.58 717.94 732.58 627.66 664.37 627.66 216.58 717.94"/></svg>