<svg id="Calque_1" data-name="Calque 1" xmlns="http://www.w3.org/2000/svg" viewBox="0 0 615.55 686.5"><defs><style>.cls-1{fill:#fff;}</style></defs><title>discord-icon_muteServ(mute)</title><path class="cls-1" d="M513.32,820c35,0,60-14.07,70-35.19H443.29C453.29,805.93,478.31,820,513.32,820Z" transform="translate(-201.45 -133.5)"/><path class="cls-1" d="M757.74,681.22V399.82q0-3.12-.12-6.22a5.23,5.23,0,0,1-1.08,2.43c-.85,1.06-1.69,2.12-2.47,3.24-.1.14-.2.28-.31.41a10.56,10.56,0,0,1-1.22,1.83L688.17,503v177H516s-71.32,69.59-71.31,69.61H793.22V681.22Z" transform="translate(-201.45 -133.5)"/><polygon class="cls-1" points="243.55 616.5 555.09 262.54 486.55 546.5 243.55 616.5"/><rect class="cls-1" x="108.28" y="456.92" width="801.88" height="68.64" transform="translate(-399.66 370.46) rotate(-45)"/><path class="cls-1" d="M570,294.78h1.46" transform="translate(-201.45 -133.5)"/><line class="cls-1" x1="352.55" y1="161.28" x2="368.55" y2="161.28"/><line class="cls-1" x1="348.22" y1="161.28" x2="352.55" y2="161.28"/><path class="cls-1" d="M549.67,294.78H454.74C421.12,294.78,338,378.13,338,410.33V502L268,574.9V575l-.16-.08V399.82c0-92.44,81.73-174.2,176.54-174.2,0-25.21,11.79-36.06,68.83-36.06s69.09,10.85,69.09,36.06a165.57,165.57,0,0,1,32.78,3.29L267,577l79-275" transform="translate(-201.45 -133.5)"/><line class="cls-1" x1="412.8" y1="95.25" x2="508.05"/><polyline class="cls-1" points="346.77 161.28 66.55 441.5 412.8 95.25 346.77 161.28"/><line class="cls-1" x1="346.78" y1="161.28" x2="347.25" y2="160.81"/><polyline class="cls-1" points="346.97 161.08 412.55 95.5 144.55 168.5 66.55 441.5 346.97 161.08"/></svg>