<svg id="Calque_1" data-name="Calque 1" xmlns="http://www.w3.org/2000/svg" viewBox="0 0 589.27 663.36"><defs><style>.cls-1{fill:#fff;}</style></defs><title>discord-icon_muteServ(unmute)</title><path class="cls-1" d="M806.78,692v71.9H217.51V692H254V395.88c0-97.27,86-183.3,185.76-183.3,0-26.53,12.4-37.94,72.42-37.94s72.7,11.41,72.7,37.94c99.76,0,184.61,86,184.61,183.3V692Zm-110.53-1.34V406.93c0-68.9-53.22-121.58-122.82-121.58H450.62C381,285.35,327.81,338,327.81,406.93v283.7Z" transform="translate(-217.51 -174.64)"/><path class="cls-1" d="M696.25,406.93v283.7H327.81V406.93c0-68.9,53.22-121.58,122.81-121.58H573.43C643,285.35,696.25,338,696.25,406.93Z" transform="translate(-217.51 -174.64)"/><path class="cls-1" d="M438.57,801H586c-10.53,22.21-36.85,37-73.69,37S449.1,823.19,438.57,801Z" transform="translate(-217.51 -174.64)"/></svg>