<svg xmlns="http://www.w3.org/2000/svg" viewBox="0 0 821.95 858.14"><defs><style>.cls-1{fill:#fff;}</style></defs><title>Fichier 2</title><g id="Calque_2" data-name="Calque 2"><g id="Calque_1-2" data-name="Calque 1"><path class="cls-1" d="M375.09,806.57c44.78,0,76.77-18,89.57-45H285.52C298.31,788.56,330.3,806.57,375.09,806.57Z"/><path class="cls-1" d="M688,628.55V268.92s-.38-5.31-.49-8a6.69,6.69,0,0,1-1.39,3.11c-1.09,1.36-2.16,2.71-3.16,4.14-.13.18-.26.35-.4.52a13.51,13.51,0,0,1-1.56,2.34L598.5,400.83V627.27H378.56c0-.08-91.2,88.25-91.2,88.25H732.8v-87Z"/><polygon class="cls-1" points="287.71 716.8 686.16 264.08 598.5 627.27 287.71 716.8"/><rect class="cls-1" x="-101.83" y="378.77" width="1025.6" height="136.8" transform="translate(-195.82 421.57) rotate(-45)"/><line class="cls-1" x1="447.58" y1="134.85" x2="448.86" y2="134.85"/><line class="cls-1" x1="427.12" y1="134.85" x2="447.58" y2="134.85"/><line class="cls-1" x1="422" y1="134.85" x2="427.12" y2="134.85"/><path class="cls-1" d="M422,134.85H302.2c-43.59,0-151.35,106.61-151.35,147.79v117.2L60,493.13V493l1.28-.11v-224c0-118.23,104.53-222.8,225.79-222.8,0-32.24,15.08-46.12,88-46.12s88.36,13.88,88.36,46.12a211.76,211.76,0,0,1,41.93,4.21L60.25,495.53l101-351.72"/><path class="cls-1" d="M504.17,50.12"/><polyline class="cls-1" points="419.73 134.57 61.32 492.97 504.17 50.12 419.73 134.57"/><line class="cls-1" x1="419.73" y1="134.57" x2="420.33" y2="133.97"/><polyline class="cls-1" points="419.98 134.32 503.86 50.44 161.09 143.81 61.32 492.97 419.98 134.32"/><polygon class="cls-1" points="384.59 716.8 233.28 716.8 686.16 264.65 599.45 623.93 384.59 716.8"/><polygon class="cls-1" points="216.58 717.94 732.58 717.94 732.58 627.66 664.37 627.66 216.58 717.94"/></g></g></svg>