<svg id="Calque_1" data-name="Calque 1" xmlns="http://www.w3.org/2000/svg" viewBox="0 0 1001.42 1021.93"><defs><style>.cls-1{fill:#fff;stroke:#fff;stroke-miterlimit:10;}</style></defs><title>mic-mute</title><g id="communication_-_mic_silent_mute" data-name="communication - mic silent mute"><path class="cls-1" d="M350,513.73V220c0-87.5,68.75-156.25,156.25-156.25,81.25,0,150,62.5,156.25,143.75l50-50C687.5,63.73,606.25,1.23,506.25,1.23,387.5,1.23,287.5,101.23,287.5,220v312.5c0,12.5,0,31.25,6.25,43.75Zm312.5,18.75c0,87.5-68.75,156.25-156.25,156.25-31.25,0-62.5-6.25-81.25-25l-43.75,43.75a201.31,201.31,0,0,0,125,43.75C625,751.23,725,651.23,725,532.48V363.73l-62.5,62.5Zm125-31.25v62.5c0,137.5-112.5,250-250,250H475c-56.25,0-106.25-18.75-150-50l-43.75,43.75c50,43.75,118.75,68.75,193.75,68.75v62.5H443.75c-18.75,0-31.25,12.5-31.25,31.25s12.5,31.25,31.25,31.25h125c18.75,0,31.25-12.5,31.25-31.25s-12.5-31.25-31.25-31.25H537.5v-62.5c175,0,312.5-137.5,312.5-312.5v-62.5Zm-562.5,0H162.5v62.5c0,43.75,6.25,81.25,25,118.75l50-50c-6.25-25-12.5-43.75-12.5-68.75Z" transform="translate(-17.27 -0.73)"/></g><polygon class="cls-1" points="1000.73 71.25 769.48 302.5 281.98 790 50.73 1021.25 0.73 977.5 956.98 21.25 1000.73 71.25"/><polygon class="cls-1" points="407.73 663 645.23 425.5 657.73 632.27 532.73 726.27 398.73 689.27 407.73 663"/><polygon class="cls-1" points="276.73 576.27 695.73 156.27 513.73 38.27 378.73 58.27 305.73 181.27 276.73 576.27"/></svg>