<svg id="Calque_1" data-name="Calque 1" xmlns="http://www.w3.org/2000/svg" viewBox="0 0 688.5 1001"><defs><style>.cls-1,.cls-3{fill:#fff;}.cls-2{fill:none;}.cls-2,.cls-3{stroke:#fff;stroke-miterlimit:10;}</style></defs><title>mic-demute</title><path class="cls-1" d="M844,500v62.5c0,175-137.5,312.5-312.5,312.5v62.5h31.25c18.75,0,31.25,12.5,31.25,31.25S581.49,1000,562.74,1000h-125c-18.75,0-31.25-12.5-31.25-31.25S419,937.5,437.74,937.5H469V875c-175,0-312.5-137.5-312.5-312.5V500H219v62.5c0,137.5,112.5,250,250,250h62.5c137.5,0,250-112.5,250-250V500Z" transform="translate(-155.99 0.5)"/><path class="cls-1" d="M719,218.75v312.5C719,650,619,750,500.24,750S281.49,650,281.49,531.25V218.75C281.49,100,381.49,0,500.24,0S719,100,719,218.75Zm-62.5,312.5V218.75c0-87.5-68.75-156.25-156.25-156.25S344,131.25,344,218.75v312.5c0,87.5,68.75,156.25,156.25,156.25S656.49,618.75,656.49,531.25Z" transform="translate(-155.99 0.5)"/><path class="cls-1" d="M656.49,218.75v312.5c0,87.5-68.75,156.25-156.25,156.25S344,618.75,344,531.25V218.75c0-87.5,68.75-156.25,156.25-156.25S656.49,131.25,656.49,218.75Z" transform="translate(-155.99 0.5)"/><path class="cls-2" d="M781.49,500v62.5c0,137.5-112.5,250-250,250H469c-137.5,0-250-112.5-250-250V500h-62.5v62.5C156.49,737.5,294,875,469,875v62.5H437.74c-18.75,0-31.25,12.5-31.25,31.25S419,1000,437.74,1000h125c18.75,0,31.25-12.5,31.25-31.25s-12.5-31.25-31.25-31.25H531.49V875c175,0,312.5-137.5,312.5-312.5V500Z" transform="translate(-155.99 0.5)"/><path class="cls-2" d="M500.24,750C619,750,719,650,719,531.25V218.75C719,100,619,0,500.24,0S281.49,100,281.49,218.75v312.5C281.49,650,381.49,750,500.24,750Z" transform="translate(-155.99 0.5)"/><path class="cls-2" d="M344,218.75c0-87.5,68.75-156.25,156.25-156.25s156.25,68.75,156.25,156.25v312.5c0,87.5-68.75,156.25-156.25,156.25S344,618.75,344,531.25Z" transform="translate(-155.99 0.5)"/><rect class="cls-3" x="163.51" y="137" width="359" height="468"/><rect class="cls-3" x="229.51" y="63" width="231" height="634"/><rect class="cls-3" x="443.51" y="100" width="57" height="557"/><rect class="cls-3" x="177.51" y="91" width="108" height="566"/></svg>