<svg id="Calque_1" data-name="Calque 1" xmlns="http://www.w3.org/2000/svg" viewBox="0 0 823.36 859.37"><defs><style>.cls-1{fill:#fff;stroke:#fff;stroke-miterlimit:10;}</style></defs><title>mute</title><g id="Calque_1-2" data-name="Calque 1-2"><path class="cls-1" d="M464.09,877.57c44.78,0,76.77-18,89.57-45H374.52C387.31,859.56,419.3,877.57,464.09,877.57Z" transform="translate(-88.3 -70.47)"/><path class="cls-1" d="M777,699.55V339.92s-.38-5.31-.49-8a6.69,6.69,0,0,1-1.39,3.11c-1.09,1.36-2.16,2.71-3.16,4.14-.13.18-.26.35-.4.52A13.51,13.51,0,0,1,770,342l-82.5,129.8V698.27H467.56c0-.08-91.2,88.25-91.2,88.25H821.8v-87Z" transform="translate(-88.3 -70.47)"/><polygon class="cls-1" points="288.41 717.33 686.86 264.61 599.2 627.8 288.41 717.33"/><rect class="cls-1" x="-12.82" y="449.77" width="1025.6" height="136.8" transform="translate(-308.26 434.83) rotate(-45)"/><path class="cls-1" d="M511,205.85H391.2c-43.59,0-151.35,106.61-151.35,147.79v117.2L149,564.13V564l1.28-.11v-224c0-118.23,104.53-222.8,225.79-222.8,0-32.24,15.08-46.12,88-46.12s88.36,13.88,88.36,46.12a211.76,211.76,0,0,1,41.93,4.21L149.25,566.53l101-351.72" transform="translate(-88.3 -70.47)"/><path class="cls-1" d="M593.17,121.12" transform="translate(-88.3 -70.47)"/><polyline class="cls-1" points="420.43 135.1 62.02 493.5 504.87 50.65 420.43 135.1"/><line class="cls-1" x1="420.43" y1="135.1" x2="421.03" y2="134.5"/><polyline class="cls-1" points="420.68 134.85 504.56 50.97 161.79 144.34 62.02 493.5 420.68 134.85"/><polygon class="cls-1" points="385.29 717.33 233.98 717.33 686.86 265.18 600.15 624.46 385.29 717.33"/><polygon class="cls-1" points="217.28 718.47 733.28 718.47 733.28 628.19 665.07 628.19 217.28 718.47"/></g></svg>