<svg id="Calque_1" data-name="Calque 1" xmlns="http://www.w3.org/2000/svg" viewBox="0 0 1001 1001"><defs><style>.cls-1,.cls-3{fill:#fff;}.cls-2{fill:none;}.cls-2,.cls-3{stroke:#fff;stroke-miterlimit:10;}</style></defs><title>settings</title><path class="cls-1" d="M875,437.5c37.5,0,62.5,25,62.5,62.5s-25,62.5-62.5,62.5H837.5c-6.25,50-31.25,93.75-56.25,131.25l25,25c25,25,25,62.5,0,87.5s-62.5,25-87.5,0l-25-25Q637.5,828.13,562.5,837.5V875c0,37.5-25,62.5-62.5,62.5s-62.5-25-62.5-62.5V837.5c-50-6.25-93.75-31.25-131.25-56.25l-25,25c-25,25-62.5,25-87.5,0s-25-62.5,0-87.5l25-25Q171.88,637.5,162.5,562.5H125c-37.5,0-62.5-25-62.5-62.5s25-62.5,62.5-62.5h37.5q9.38-75,56.25-131.25l-25-25c-25-25-25-62.5,0-87.5s62.5-25,87.5,0l25,25Q362.5,171.88,437.5,162.5V125c0-37.5,25-62.5,62.5-62.5s62.5,25,62.5,62.5v37.5c50,6.25,93.75,31.25,131.25,56.25l25-25c25-25,62.5-25,87.5,0s25,62.5,0,87.5l-25,25Q828.13,362.5,837.5,437.5ZM687.5,500c0-106.25-81.25-187.5-187.5-187.5S312.5,393.75,312.5,500,393.75,687.5,500,687.5,687.5,606.25,687.5,500Z" transform="translate(0.5 0.5)"/><path class="cls-1" d="M887.5,375C950,381.25,1000,437.5,1000,500S950,618.75,887.5,625c-6.25,25-12.5,43.75-25,62.5,43.75,50,37.5,125-6.25,168.75-50,43.75-118.75,50-168.75,6.25-18.75,6.25-43.75,18.75-62.5,25C618.75,950,562.5,1000,500,1000S381.25,950,375,887.5c-25-6.25-43.75-12.5-62.5-25-50,43.75-125,37.5-168.75-6.25-43.75-50-50-118.75-6.25-168.75-6.25-18.75-18.75-43.75-25-62.5C50,618.75,0,562.5,0,500S50,381.25,112.5,375c6.25-18.75,18.75-43.75,25-62.5-37.5-50-37.5-118.75,6.25-168.75C193.75,100,262.5,100,312.5,137.5c18.75-6.25,43.75-18.75,62.5-25C381.25,50,437.5,0,500,0S618.75,50,625,112.5c25,6.25,43.75,12.5,62.5,25,50-43.75,125-37.5,168.75,6.25,43.75,50,50,118.75,6.25,168.75C868.75,331.25,881.25,356.25,887.5,375Zm50,125c0-37.5-25-62.5-62.5-62.5H837.5q-9.37-75-56.25-131.25l25-25c25-25,25-62.5,0-87.5s-62.5-25-87.5,0l-25,25c-37.5-25-81.25-50-131.25-56.25V125c0-37.5-25-62.5-62.5-62.5s-62.5,25-62.5,62.5v37.5q-75,9.38-131.25,56.25l-25-25c-25-25-62.5-25-87.5,0s-25,62.5,0,87.5l25,25Q171.88,362.5,162.5,437.5H125c-37.5,0-62.5,25-62.5,62.5s25,62.5,62.5,62.5h37.5q9.38,75,56.25,131.25l-25,25c-25,25-25,62.5,0,87.5s62.5,25,87.5,0l25-25c37.5,25,81.25,50,131.25,56.25V875c0,37.5,25,62.5,62.5,62.5s62.5-25,62.5-62.5V837.5q75-9.37,131.25-56.25l25,25c25,25,62.5,25,87.5,0s25-62.5,0-87.5l-25-25c25-37.5,50-81.25,56.25-131.25H875C912.5,562.5,937.5,537.5,937.5,500Z" transform="translate(0.5 0.5)"/><path class="cls-1" d="M500,312.5c106.25,0,187.5,81.25,187.5,187.5S606.25,687.5,500,687.5,312.5,606.25,312.5,500,393.75,312.5,500,312.5ZM625,500c0-68.75-56.25-125-125-125S375,431.25,375,500s56.25,125,125,125S625,568.75,625,500Z" transform="translate(0.5 0.5)"/><path class="cls-2" d="M500,312.5c-106.25,0-187.5,81.25-187.5,187.5S393.75,687.5,500,687.5,687.5,606.25,687.5,500,606.25,312.5,500,312.5Z" transform="translate(0.5 0.5)"/><path class="cls-2" d="M500,625c-68.75,0-125-56.25-125-125s56.25-125,125-125,125,56.25,125,125S568.75,625,500,625Z" transform="translate(0.5 0.5)"/><path class="cls-2" d="M1000,500c0-62.5-50-118.75-112.5-125-6.25-18.75-18.75-43.75-25-62.5,43.75-50,37.5-118.75-6.25-168.75C812.5,100,737.5,93.75,687.5,137.5c-18.75-12.5-37.5-18.75-62.5-25C618.75,50,562.5,0,500,0S381.25,50,375,112.5c-18.75,6.25-43.75,18.75-62.5,25-50-37.5-118.75-37.5-168.75,6.25C100,193.75,100,262.5,137.5,312.5c-6.25,18.75-18.75,43.75-25,62.5C50,381.25,0,437.5,0,500S50,618.75,112.5,625c6.25,18.75,18.75,43.75,25,62.5-43.75,50-37.5,118.75,6.25,168.75,43.75,43.75,118.75,50,168.75,6.25,18.75,12.5,37.5,18.75,62.5,25C381.25,950,437.5,1000,500,1000s118.75-50,125-112.5c18.75-6.25,43.75-18.75,62.5-25,50,43.75,118.75,37.5,168.75-6.25,43.75-43.75,50-118.75,6.25-168.75,12.5-18.75,18.75-37.5,25-62.5C950,618.75,1000,562.5,1000,500Z" transform="translate(0.5 0.5)"/><path class="cls-2" d="M837.5,562.5c-6.25,50-31.25,93.75-56.25,131.25l25,25c25,25,25,62.5,0,87.5s-62.5,25-87.5,0l-25-25Q637.5,828.13,562.5,837.5V875c0,37.5-25,62.5-62.5,62.5s-62.5-25-62.5-62.5V837.5c-50-6.25-93.75-31.25-131.25-56.25l-25,25c-25,25-62.5,25-87.5,0s-25-62.5,0-87.5l25-25Q171.88,637.5,162.5,562.5H125c-37.5,0-62.5-25-62.5-62.5s25-62.5,62.5-62.5h37.5q9.38-75,56.25-131.25l-25-25c-25-25-25-62.5,0-87.5s62.5-25,87.5,0l25,25Q362.5,171.88,437.5,162.5V125c0-37.5,25-62.5,62.5-62.5s62.5,25,62.5,62.5v37.5c50,6.25,93.75,31.25,131.25,56.25l25-25c25-25,62.5-25,87.5,0s25,62.5,0,87.5l-25,25Q828.13,362.5,837.5,437.5H875c37.5,0,62.5,25,62.5,62.5s-25,62.5-62.5,62.5Z" transform="translate(0.5 0.5)"/><polygon class="cls-3" points="361 586 350 452 446 353 595 363 647 469 625 595 554 644 446 644 462 709 638 674 714 567 719 461 655 346 494 271 358 321 293 451 293 565 332 662 420 709 506 721 458 633 361 586"/><rect class="cls-3" x="47" y="433" width="189" height="139"/><rect class="cls-3" x="168" y="676" width="158" height="158"/><rect class="cls-3" x="412" y="784" width="175" height="163"/><rect class="cls-3" x="657" y="688" width="190" height="152"/><rect class="cls-3" x="785" y="405" width="158" height="189"/><rect class="cls-3" x="670" y="154" width="177" height="177"/><rect class="cls-3" x="417" y="49" width="162" height="162"/><rect class="cls-3" x="149" y="167" width="201" height="151"/><rect class="cls-3" x="539" y="143" width="163" height="110"/><rect class="cls-3" x="741" y="305" width="106" height="144"/><rect class="cls-3" x="764" y="558" width="77" height="163"/><rect class="cls-3" x="260" y="745" width="449" height="101"/><rect class="cls-3" x="149" y="271" width="111" height="417"/><rect class="cls-3" x="313" y="154" width="157" height="62"/></svg>