<svg id="Calque_1" data-name="Calque 1" xmlns="http://www.w3.org/2000/svg" viewBox="0 0 1001 938.5"><defs><style>.cls-1{fill:#fff;stroke:#fff;stroke-miterlimit:10;}</style></defs><title>sound-demute</title><g id="tool_-_headphone" data-name="tool - headphone"><path class="cls-1" d="M993.75,585.5c6.25-18.75,6.25-43.75,6.25-62.5,0-275-225-500-500-500S0,248,0,523c0,18.75,0,43.75,6.25,62.5h0C0,598,0,604.25,0,616.75v250c0,50,43.75,93.75,93.75,93.75h125c50,0,93.75-43.75,93.75-93.75v-250c0-50-43.75-93.75-93.75-93.75h-125c-12.5,0-18.75,0-31.25,6.25V523C62.5,279.25,256.25,85.5,500,85.5S937.5,279.25,937.5,523v6.25C925,523,918.75,523,906.25,523h-125c-50,0-93.75,43.75-93.75,93.75v250c0,50,43.75,93.75,93.75,93.75h125c50,0,93.75-43.75,93.75-93.75v-250c0-12.5,0-18.75-6.25-31.25Zm-900,0h125C237.5,585.5,250,598,250,616.75v250C250,885.5,237.5,898,218.75,898h-125C75,898,62.5,885.5,62.5,866.75v-250C62.5,598,75,585.5,93.75,585.5ZM937.5,866.75C937.5,885.5,925,898,906.25,898h-125C762.5,898,750,885.5,750,866.75v-250c0-18.75,12.5-31.25,31.25-31.25h125c18.75,0,31.25,12.5,31.25,31.25Z" transform="translate(0.5 -22.5)"/></g><rect class="cls-1" x="38.5" y="543" width="238" height="354"/><rect class="cls-1" x="729.5" y="537" width="228" height="360"/></svg>