<svg id="Calque_1" data-name="Calque 1" xmlns="http://www.w3.org/2000/svg" viewBox="0 0 1034.03 1028.03"><defs><style>.cls-1{fill:#fff;stroke:#fff;stroke-miterlimit:10;}</style></defs><title>sound-mute</title><g id="tool_-_headphone" data-name="tool - headphone"><path class="cls-1" d="M790.12,98.77C709.88,43.21,611.11,6.17,500,6.17,228.4,6.17,6.17,228.4,6.17,500c0,18.52,0,43.21,6.17,61.73-6.17,12.35-6.17,18.52-6.17,30.86V839.51c0,12.35,0,24.69,6.17,37l32.35-32.35L67.9,821V592.59c0-18.52,12.35-30.86,30.86-30.86H222.22c18.52,0,30.86,12.35,30.86,30.86V635.8l61.73-61.73C308.64,537,265.43,500,222.22,500H98.77c-12.35,0-18.52,0-30.86,6.17V500C67.9,259.26,259.26,67.9,500,67.9a421.56,421.56,0,0,1,246.91,80.25Zm197.53,463c6.17-18.52,6.17-43.21,6.17-61.73,0-111.11-37-209.88-92.59-290.12l-49.38,43.21A421.56,421.56,0,0,1,932.1,500v6.17C919.75,500,913.58,500,901.23,500H777.78c-49.38,0-92.59,43.21-92.59,92.59V839.51c0,49.38,43.21,92.59,92.59,92.59H901.23c49.38,0,92.59-43.21,92.59-92.59V592.59c0-12.35,0-18.52-6.17-30.86ZM932.1,839.51c0,18.52-12.35,30.86-30.86,30.86H777.78c-18.52,0-30.86-12.35-30.86-30.86V592.59c0-18.52,12.35-30.86,30.86-30.86H901.23c18.52,0,30.86,12.35,30.86,30.86ZM302.47,808.64,179,932.1h43.21c49.38,0,92.59-43.21,92.59-92.59V796.3l-12.35,12.35Z" transform="translate(-5.67 -5.67)"/></g><polygon class="cls-1" points="1033.33 70.54 323.45 780.41 76.54 1027.33 33.33 984.12 280.24 737.2 743.2 274.24 990.12 27.33 1033.33 70.54"/><polygon class="cls-1" points="47.33 830.33 288.83 588.83 231.33 561.33 62.33 564.33 47.33 830.33"/><rect class="cls-1" x="41.33" y="544.33" width="221" height="32"/><rect class="cls-1" x="727.33" y="544.33" width="213" height="346"/></svg>